<svg width="400" height="200" xmlns="http://www.w3.org/2000/svg" xmlns:svg="http://www.w3.org/2000/svg" version="1.1">
 <g class="layer">
  <title>Layer 1</title>
  <g id="layer1">
   <path d="m199.99999,150a50,50 0 0 1 -50,50a50,50 0 0 1 -50,-50a50,50 0 0 1 50,-50a50,50 0 0 1 50,50zm-100,0a50,50 0 0 1 -50,50a50,50 0 0 1 -50,-50a50,50 0 0 1 50,-50a50,50 0 0 1 50,50zm100,-100a50,50 0 0 1 -50,50a50,50 0 0 1 -50,-50a50,50 0 0 1 50,-50a50,50 0 0 1 50,50zm-100,0a50,50 0 0 1 -50,50a50,50 0 0 1 -50,-50a50,50 0 0 1 50,-50a50,50 0 0 1 50,50zm99.9998,-49.99984l0,199.99967l200.00019,0l0,-199.99967l-200.00019,0zm37.34656,21.72322l14.08906,0.0909c15.75845,0.10214 15.52152,0.0772 19.64531,2.06551c2.87383,1.38563 4.88304,3.06906 6.43837,5.3945c3.27806,4.90106 3.78896,11.65913 1.28106,16.94005c-1.08416,2.28292 -3.618,5.02188 -5.5547,6.00429l-1.27486,0.64647l2.2009,1.09451c5.6323,2.80007 8.69875,8.4523 8.34833,15.38872c-0.45,8.90714 -6.02776,15.05795 -15.23835,16.80414c-1.84235,0.34927 -4.52857,0.4191 -16.07344,0.4191l-13.86168,0l0,-32.42433l0,-32.42386zm82.55,0.0253l20.76979,0l20.76979,0l0,5.15938l0,5.15937l-15.21354,0l-15.21354,0l0,8.46667l0,8.46667l13.75833,0l13.75833,0l0,5.15937l0,5.15938l-13.75833,0l-13.75833,0l0,8.46666l0,8.46667l15.21354,0l15.21354,0l0,5.15937l0,5.15938l-20.76979,0l-20.76979,0l0,-32.41146l0,-32.41146zm-71.4375,9.78959l0,8.76122l0,8.76122l6.41614,-0.12609c5.25667,-0.10311 6.65522,-0.21085 7.73907,-0.59738c4.06072,-1.4482 6.14434,-4.60924 5.90351,-8.95708c-0.12295,-2.21966 -0.69912,-3.56354 -2.15025,-5.01468c-2.20279,-2.20278 -5.0946,-2.82115 -13.21212,-2.82515l-4.69635,-0.00206zm0,26.72291l0,9.12813l0,9.12812l6.44612,0c7.16841,0 8.55476,-0.16884 10.93628,-1.33376c3.14991,-1.54081 4.68503,-4.15643 4.65243,-7.92665c-0.0425,-4.91838 -2.89322,-7.98412 -8.0977,-8.708c-1.13789,-0.15827 -4.73944,-0.28784 -8.00313,-0.28784l-5.934,0zm12.32999,52.69704c0.53997,-0.0007 1.09036,0.007 1.65107,0.0248c5.7145,0.17659 10.5755,1.14946 15.36443,3.07475l1.74305,0.70073l0.0713,5.61826c0.056,4.40269 -0.001,5.61776 -0.26458,5.61723c-0.18481,-0.00034 -1.43474,-0.47463 -2.77813,-1.0542c-5.73289,-2.47333 -11.19707,-3.5854 -16.56798,-3.37188c-4.04169,0.16068 -5.89474,0.68416 -7.97729,2.25412c-4.03547,3.04221 -3.97888,9.49918 0.10594,12.07781c1.46661,0.92583 2.88819,1.34373 9.54102,2.80397c3.31893,0.72845 6.85708,1.60449 7.86309,1.94665c6.70587,2.28081 10.78164,6.10716 12.71085,11.93466c0.63253,1.91069 0.70125,2.50291 0.70125,6.08542c0.00055,3.56425 -0.0696,4.17883 -0.68472,6.02702c-2.16932,6.51756 -7.18155,10.97571 -14.49472,12.89225c-1.83472,0.48082 -3.12613,0.60473 -7.01146,0.67283c-2.61937,0.0459 -5.5364,-0.0233 -6.48229,-0.15348c-4.86844,-0.67003 -10.17779,-2.2202 -14.48594,-4.23024l-2.18281,-1.01854l0,-5.70561c0,-3.13811 0.0557,-5.70611 0.12351,-5.70611c0.0678,0 0.87142,0.41035 1.78594,0.91157c5.55248,3.04324 14.73421,5.44502 20.77702,5.43483c6.70991,-0.0113 10.6498,-3.0086 10.727,-8.16022c0.0364,-2.42927 -0.67784,-4.31287 -2.22364,-5.86219c-1.85944,-1.86367 -3.56552,-2.5192 -10.66808,-4.09898c-9.73908,-2.16622 -12.77129,-3.45114 -16.17938,-6.85641c-3.29033,-3.28763 -4.71837,-7.06403 -4.71237,-12.45714c0.007,-5.49045 1.53373,-9.25756 5.25601,-12.96458c4.39581,-4.37777 10.19241,-6.42672 18.2919,-6.43733l0.00001,0.00001zm48.24874,1.27796l26.86038,0l26.86089,0l0,5.29166l0,5.29167l-10.58334,0l-10.58333,0l0,27.11979l0,27.11979l-5.68854,0l-5.68854,0l0,-27.1167l0,-27.11667l-10.51719,-0.0693l-10.51719,-0.0692l-0.0718,-5.22553l-0.07134,-5.22551z" fill="white" id="path1010-9-8" stroke-linecap="round" stroke-width="2"/>
  </g>
 </g>
</svg>
